<svg width="151" height="132" viewBox="5 42 151 132" fill="none" xmlns="http://www.w3.org/2000/svg">
<path d="M22.365 173.573V156.213H5.47395V148.081H22.365V130.72H30.4977V148.081H47.3888V156.213H30.4977V173.573H22.365ZM63.3243 71.9144C59.1537 71.9144 55.6086 70.5069 52.6892 67.6917C49.874 64.8765 48.4664 61.3315 48.4664 57.0566C48.4664 52.886 49.874 49.3931 52.6892 46.5779C55.6086 43.6584 59.1537 42.1987 63.3243 42.1987C67.5992 42.1987 71.1442 43.6584 73.9594 46.5779C76.8788 49.3931 78.3386 52.886 78.3386 57.0566C78.3386 61.3315 76.8788 64.8765 73.9594 67.6917C71.1442 70.5069 67.5992 71.9144 63.3243 71.9144ZM63.3243 63.4689C65.2011 63.4689 66.7129 62.8955 67.8599 61.7485C69.111 60.4973 69.7366 58.9334 69.7366 57.0566C69.7366 55.2841 69.111 53.8243 67.8599 52.6774C66.7129 51.4262 65.2011 50.8006 63.3243 50.8006C61.5518 50.8006 60.0399 51.4262 58.7887 52.6774C57.6418 53.8243 57.0684 55.2841 57.0684 57.0566C57.0684 58.9334 57.6418 60.4973 58.7887 61.7485C60.0399 62.8955 61.5518 63.4689 63.3243 63.4689ZM112.811 104.758V80.6728H123.915V104.758H112.811ZM81.8441 124.152V113.047H105.929V124.152H81.8441ZM131.266 124.152V113.047H155.351V124.152H131.266ZM112.811 156.213V132.128H123.915V156.213H112.811Z" fill="#FF5233"/>
</svg>

