<svg width="938" height="267" viewBox="0 0 938 267" fill="none" xmlns="http://www.w3.org/2000/svg">
<path d="M403.812 213.503H431.858L382.268 48.959H349.359L299.756 213.503H327.802L338.65 174.987H392.75L403.812 213.503ZM365.347 72.5948H366.28C369.984 92.7659 377.026 120.723 386.249 152.032H345.126C354.399 120.748 361.643 92.7659 365.347 72.5948Z" fill="white"/>
<path d="M673.382 152.548C673.382 119.413 657.393 94.8447 621.473 94.8447C587.872 94.8447 566.542 118.254 566.542 154.4C566.542 191.958 585.554 216.287 621.814 216.287C645.802 216.287 665.772 206.057 672.689 186.856C674.137 182.837 674.679 180.443 675.133 176.197C675.17 175.794 675.208 174.924 675.208 174.924H649.305C649.305 174.924 649.192 176.008 649.154 176.197C647.088 186.616 636.996 194.503 621.814 194.503C605.246 194.503 593.894 180.594 593.894 161.821H673.054C673.281 158.81 673.382 155.572 673.382 152.548ZM645.802 144.208H593.655C593.655 128.446 602.928 113.844 620.781 113.844C638.155 113.844 646.042 127.06 645.802 144.208Z" fill="white"/>
<path d="M750.299 216.249C788.31 216.249 808.935 192.147 811.253 157.387L811.581 152.057H782.968C781.583 178.477 770.923 192.614 751.458 192.614C729.674 192.614 719.015 173.375 719.015 137.455V122.197C719.015 86.0382 729.208 68.6641 751.458 68.6641C770.697 68.6641 781.583 83.027 782.968 108.981H811.669L811.48 104.584C808.469 64.0276 786.912 45.0156 751.685 45.0156C710.436 45.0156 689.811 74.6864 689.811 122.651V138.614C689.811 186.579 709.743 216.249 750.299 216.249Z" fill="white"/>
<path d="M881.48 216.287C914.389 216.287 937.798 193.571 937.798 155.572C937.798 117.561 914.389 94.8447 881.48 94.8447C848.571 94.8447 825.162 117.561 825.162 155.572C825.162 193.105 848.571 216.287 881.48 216.287ZM881.48 194.969C863.867 194.969 853.434 180.821 853.434 155.572C853.434 130.311 863.867 116.162 881.48 116.162C899.094 116.162 909.525 130.538 909.525 155.572C909.525 180.821 899.094 194.969 881.48 194.969Z" fill="white"/>
<path fill-rule="evenodd" clip-rule="evenodd" d="M470.461 97.6291H444.747V258.695H471.86V217.194V202.856C483.64 207.934 491.753 216.287 504.995 216.287C535.825 216.287 553.199 191.719 553.199 155.333C553.199 119.879 536.518 94.8447 506.155 94.8447C492.371 94.8447 482.216 104.055 470.461 110.127V97.6291ZM471.167 152.788V158.583C471.167 180.594 481.586 194.969 498.04 194.969C514.961 194.969 524.927 179.435 524.927 155.333C524.927 131.458 515.654 116.162 498.28 116.162C482.053 116.162 471.167 129.379 471.167 152.788Z" fill="white"/>
<mask id="mask0_1779_6580" style="mask-type:alpha" maskUnits="userSpaceOnUse" x="0" y="0" width="267" height="267">
<path d="M266.709 133.361C266.709 59.7069 207.003 0 133.361 0C59.707 0 0 59.7069 0 133.361C0 207.002 59.707 266.709 133.361 266.709C207.003 266.709 266.709 207.002 266.709 133.361Z" fill="#0054FA"/>
</mask>
<g mask="url(#mask0_1779_6580)">
<g filter="url(#filter0_i_1779_6580)">
<path d="M210.316 295.675C208.968 295.675 207.834 295.675 206.839 295.675C206.624 295.675 206.41 295.675 206.209 295.675C205.239 295.675 204.256 295.662 203.299 295.637C198.007 295.486 192.677 294.906 187.449 293.898C181.968 294.856 176.425 295.372 170.919 295.46C170.339 295.46 169.76 295.473 169.142 295.473C168.512 295.473 168.651 295.473 168.424 295.473H168.26C166.749 295.473 165.249 295.473 163.725 295.46H163.511C161.911 295.46 160.121 295.448 158.471 295.448C156.808 295.448 157.274 295.448 156.682 295.448L95.8412 295.675V295.095C91.9354 294.856 88.055 294.377 84.1996 293.684C78.3537 294.742 72.3942 295.284 66.4601 295.284H45.596C12.914 295.284 -17.1347 280.342 -36.8648 254.287L-37.041 254.06C-57.4893 226.909 -63.2849 191.38 -52.5505 158.988L-45.2304 137.015C-42.2444 128.032 -38.4146 119.263 -33.8159 110.935C-34.2569 107.029 -34.4837 103.073 -34.4837 99.1547C-34.4837 92.5906 -33.8534 86.0139 -32.6061 79.5757C-32.5305 76.9299 -32.3542 74.2841 -32.0645 71.6887C-30.4014 56.5069 -25.1854 41.7282 -16.9582 28.8646C-12.8005 18.105 -7.09319 8.15174 7.45895e-05 -0.717989C21.1539 -27.2642 54.0625 -43.1138 88.0547 -43.1138C122.06 -43.1138 102.292 -42.4335 109.259 -41.0854C114.903 -39.9893 119.414 -38.679 128.347 -35.945H128.359C129.531 -35.5923 130.236 -35.3654 130.665 -35.252C142.269 -32.0393 153.305 -27.1257 163.511 -20.6498C171.246 -15.7361 178.39 -9.95319 184.778 -3.48987C194.24 1.02059 203.16 6.62718 211.337 13.2165C220.421 15.2197 229.315 18.2561 237.782 22.2374C249.94 27.9574 261.09 35.542 270.892 44.7519C280.656 53.9241 288.858 64.5072 295.297 76.2117C298.9 82.7507 301.911 89.6045 304.305 96.6474C308.286 102.09 311.713 107.76 314.737 113.921C318.177 120.875 320.167 126.885 321.074 129.594L321.465 130.677L321.982 132.366C322.082 132.63 322.271 133.21 322.687 134.419L322.725 134.533C325.862 143.667 328.205 150.773 329.806 159.29L329.831 159.403C333.837 180.998 331.872 203.298 324.136 223.873C324.086 224.011 324.022 224.213 323.959 224.414L323.708 225.082C323.393 225.977 323.103 226.745 322.876 227.35C316.01 245.997 304.003 262.212 288.153 274.282C271.875 286.679 252.536 293.974 232.188 295.385L230.84 295.486L226.896 295.649H220.307C219.778 295.649 219.198 295.649 218.568 295.649C217.409 295.649 216.174 295.649 214.927 295.649H214.738C213.226 295.649 211.714 295.649 210.303 295.649L210.316 295.675Z" fill="#0054FA"/>
</g>
<path d="M88.055 -42.2951C96.5593 -42.2951 101.687 -42.2447 104.711 -42.1565C105.606 -42.1313 106.311 -42.1062 106.866 -42.081C106.84 -42.0306 106.828 -41.9928 106.828 -41.9424C106.714 -41.4259 107.017 -41.073 107.244 -40.8966C107.458 -40.7454 107.722 -40.632 107.999 -40.5438C108.138 -40.4934 108.302 -40.443 108.491 -40.4052L109.108 -40.2667C114.702 -39.1832 119.175 -37.8981 128.107 -35.1642L128.221 -35.1263H128.234C128.763 -34.9625 129.191 -34.8239 129.556 -34.7231L130.438 -34.4585H130.451C141.601 -31.3718 152.247 -26.6849 162.112 -20.5491L163.057 -19.957C170.755 -15.0686 177.848 -9.32337 184.186 -2.91046L184.287 -2.79711L184.425 -2.74666C193.837 1.7386 202.694 7.3073 210.82 13.8588L210.972 13.9848L211.161 14.0226C219.615 15.8873 227.904 18.6591 235.842 22.2624L237.43 22.9931C249.134 28.4863 259.894 35.7308 269.406 44.4998L270.326 45.3564C279.725 54.1758 287.675 64.3307 293.974 75.5313L294.579 76.6148C298.157 83.1033 301.143 89.9193 303.511 96.9118L303.562 97.0378L303.637 97.1385C307.342 102.203 310.567 107.47 313.427 113.139L313.994 114.286C317.409 121.177 319.386 127.162 320.281 129.858L320.294 129.871V129.883L320.684 130.954L321.2 132.605V132.617L321.213 132.63C321.302 132.907 321.478 133.449 321.906 134.684V134.696L321.957 134.822C325.094 143.944 327.412 151 328.987 159.441V159.454V159.466L329.012 159.554C332.993 180.998 331.053 203.134 323.38 223.57C323.317 223.721 323.241 223.948 323.178 224.137L322.939 224.792C322.775 225.246 322.624 225.662 322.486 226.039L322.108 227.06L322.095 227.073C315.493 244.988 304.117 260.649 289.111 272.492L287.649 273.626C272.014 285.532 253.506 292.701 234.028 294.415L232.138 294.566L230.79 294.654L226.896 294.818H208.968L208.981 294.843H206.209C205.73 294.843 205.239 294.843 204.76 294.843L203.324 294.805C198.07 294.654 192.791 294.087 187.6 293.079L187.449 293.054L187.298 293.079C182.208 293.974 177.055 294.477 171.927 294.616L170.906 294.629C170.617 294.629 170.314 294.629 170.037 294.641C169.735 294.641 169.445 294.641 169.143 294.641H168.261C167.505 294.641 166.749 294.641 165.993 294.641L163.725 294.629H163.511C162.717 294.629 161.873 294.629 161.016 294.629C160.16 294.616 159.303 294.616 158.471 294.616H156.67L96.6728 294.843V294.314L95.8918 294.276C92.0239 294.024 88.1684 293.558 84.3509 292.865L84.1999 292.84L84.0612 292.865C78.2656 293.923 72.3441 294.452 66.4603 294.452H45.5962C13.6828 294.452 -15.6981 280.102 -35.2896 254.992L-36.2093 253.795L-36.3856 253.556C-56.6701 226.619 -62.4155 191.379 -51.7693 159.252L-44.4492 137.279C-41.4758 128.346 -37.6709 119.628 -33.0848 111.325L-32.9587 111.098L-32.9839 110.834C-33.4249 106.953 -33.6517 103.048 -33.6517 99.1545C-33.6517 92.6534 -33.0344 86.1144 -31.7997 79.7267L-31.7871 79.6636V79.6007C-31.7115 77.3077 -31.5728 75.0146 -31.346 72.7468L-31.2328 71.7892V71.7766C-29.5949 56.7207 -24.4291 42.0681 -16.2649 29.3179L-16.2148 29.2422L-16.1896 29.1667C-12.1831 18.8103 -6.75278 9.22235 -0.012291 0.629798L0.642884 -0.201782C21.6329 -26.5464 54.3147 -42.2951 88.055 -42.2951Z" stroke="url(#paint0_linear_1779_6580)" stroke-width="1.65281" stroke-miterlimit="10"/>
<path d="M203.211 194.845L203.564 196.168L203.74 196.81C204.03 197.868 205.05 198.675 206.134 198.675C206.209 198.675 206.361 198.675 206.449 198.675H207.141C211.085 198.7 216.831 198.662 220.787 198.675H224.881L225.448 198.65C228.308 198.448 230.941 196.457 231.911 193.736C232.188 192.993 233.033 190.674 233.322 189.881C234.847 185.849 235.275 181.414 234.481 177.193C233.877 173.981 230.601 165.061 229.556 161.747C229.001 160.235 228.447 158.182 227.728 156.783C226.972 155.233 226.053 153.848 224.919 152.537C223.445 150.836 217.385 143.567 216.125 142.067L215.23 141.022C213.403 138.981 214.185 136.108 213.731 133.639C212.219 119.553 199.847 107.937 185.748 107.307C182.788 107.193 178 107.269 174.913 107.256C172.86 107.319 170.781 106.903 168.967 105.921C167.341 105.152 165.729 103.413 164.443 102.166L156.632 94.5059C155.536 93.4476 153.835 91.7341 152.739 90.7136C149.539 87.7024 145.822 85.2582 141.79 83.5069C140.001 82.7132 131.106 79.2232 129.153 78.4043C127.314 77.6483 125.601 76.5397 124.139 75.179C122.791 73.9443 121.607 72.193 120.536 70.7567C119.742 69.7236 118.104 67.4935 117.273 66.4226C114.072 62.3153 109.461 59.4554 104.447 58.145C102.532 57.6285 92.7423 54.5165 90.8272 54.1511C85.2711 53.0802 79.2737 55.3354 75.7837 59.8207C74.4608 61.4207 73.5663 63.3989 72.9868 65.3895C72.6844 66.5864 72.4576 68.01 72.3064 69.2573C71.7142 73.4654 69.4212 77.3964 66.0573 79.9918L65.4526 80.4327C65.4022 80.4705 65.3646 80.4958 65.3394 80.5336L65.2511 80.5965C64.2054 81.3902 64.0163 83.0659 64.8731 84.0738C64.9109 84.1242 65.0115 84.2377 65.0745 84.3133L66.826 86.4173L66.7377 86.3165C67.2795 86.8709 67.4559 87.7527 67.1536 88.4583C66.8512 89.063 66.2717 90.2348 65.9693 90.8648C65.2638 92.2758 63.8401 95.1485 63.1345 96.5596C61.5093 99.6841 63.1975 103.892 66.5867 104.963L69.5725 105.958C70.4418 106.21 71.1727 106.84 71.6011 107.634L72.319 109.096L72.6844 109.814C73.4782 111.527 75.3429 112.548 77.195 112.409C77.7871 112.409 87.9924 112.409 90.8272 112.409C91.1926 112.409 91.495 112.712 91.495 113.077C91.495 113.43 91.268 113.669 90.953 113.732L86.0648 114.702C85.3592 114.853 84.8553 115.458 84.8553 116.164V117.411C84.8553 121.304 83.1668 125.021 80.2438 127.591L63.714 142.105C55.9026 148.959 50.0441 157.791 46.7684 167.681L39.4861 189.541C38.7805 191.632 39.0829 193.975 40.4058 195.739C41.6531 197.365 43.5176 198.31 45.5838 198.31H66.4479C67.8212 198.31 68.9425 197.188 68.9425 195.802V193.459C68.9425 192.804 68.6779 192.161 68.2117 191.682L67.1662 190.637C66.4984 189.956 66.196 188.974 66.4606 188.079C66.7881 186.996 67.7581 186.277 68.8669 186.277H74.4359C75.8091 186.277 76.9304 185.169 76.9304 183.783V179.776C76.9304 176.79 78.3289 173.956 80.7228 172.166L81.2014 171.801C88.3199 166.446 92.6792 158.043 92.5784 149.123C92.528 144.688 94.4934 140.555 97.9582 137.821L102.254 134.407C102.658 134.08 102.872 133.576 102.809 133.059C102.57 131.157 102.129 129.279 101.511 127.465C101.07 126.155 100.138 123.421 99.6967 122.11C96.9753 114.589 97.807 105.82 102.015 99.0415C104.661 94.6949 108.63 91.205 113.178 89.2144C113.506 89.0632 113.883 89.2144 114.047 89.5419C114.198 89.8443 114.085 90.2222 113.783 90.4112C103.628 96.7359 98.563 109.763 102.695 121.102C103.111 122.4 104.056 125.248 104.447 126.482C106.311 132.139 106.563 138.325 105.14 144.096L97.2147 173.3L96.9628 174.208C95.8541 177.811 96.358 181.754 98.1723 185.03C98.2353 185.206 98.626 185.937 98.7016 186.076C99.5332 187.613 99.3694 189.503 99.3694 191.153V194.933C99.3442 195.764 99.3442 196.81 99.9868 197.465C100.541 198.12 101.41 198.373 102.242 198.31H124.832C125.059 198.31 125.865 198.31 126.079 198.297C127.427 198.171 128.435 196.886 128.322 195.538V193.648C128.322 193.232 128.284 192.816 128.108 192.438C127.944 192.048 127.591 191.682 127.289 191.393L125.941 190.044C124.756 188.885 124.618 186.819 125.613 185.509C125.953 185.03 127.969 182.208 128.347 181.679C130.3 178.831 134.042 173.754 135.932 170.932C140.19 164.418 141.551 156.153 139.699 148.619C139.283 146.527 138.036 143.693 137.343 141.652C136.474 139.144 134.218 133.387 133.525 130.854C132.417 127.062 132.417 123.093 132.669 119.213C132.795 116.907 132.933 114.589 133.147 112.271C133.185 111.93 133.462 111.653 133.828 111.653C134.193 111.653 134.47 111.93 134.521 112.271C134.836 115.823 134.987 119.427 135.163 122.955C135.403 126.621 136.259 130.06 137.645 133.462C138.565 135.869 140.808 141.752 141.677 144.058C142.395 145.923 142.924 147.888 143.264 149.866C143.516 151.366 144.512 152.638 145.91 153.217C148.002 154.074 150.181 154.843 152.487 155.485C154.843 156.153 157.337 155.032 158.396 152.814C158.572 152.436 158.774 152.058 158.963 151.68C160.487 148.72 162.553 146.061 164.582 143.441C166.459 141.034 168.4 138.678 170.415 136.36C170.642 136.095 171.033 136.058 171.335 136.259C171.612 136.461 171.713 136.864 171.537 137.154C169.218 141.034 166.459 145.242 163.952 148.946C160.979 153.545 158.887 158.749 157.993 164.166C157.312 168.5 156.027 176.639 155.334 181.061C155.045 182.687 154.893 184.879 154.011 186.328C153.23 187.852 151.416 189.087 150.143 190.158L149.198 190.926L149.073 191.027L149.01 191.09C148.304 191.695 148.027 192.703 148.304 193.597C148.581 194.542 148.959 196.105 149.224 196.974C149.551 197.881 150.484 198.511 151.454 198.486H156.33C160.349 198.461 164.481 198.486 168.5 198.486C168.677 198.486 169.231 198.486 169.42 198.486C171.196 198.486 172.973 197.906 174.397 196.835C176.211 195.525 177.08 193.686 177.799 191.544C178.34 190.082 181.427 181.742 182.032 180.091C182.573 178.554 183.229 176.891 183.934 175.43C186.164 170.831 189.276 166.686 193.157 163.372C197.856 159.504 201.346 154.503 203.702 148.795C203.841 148.455 204.194 148.279 204.534 148.379C204.874 148.468 205.101 148.808 205.05 149.161C204.269 153.948 201.963 158.421 198.788 162.087C197.516 163.561 196.772 165.401 196.772 167.341V168.954C196.772 169.735 196.773 170.655 196.911 171.436C197.239 173.376 198.285 175.165 199.759 176.463L200.754 177.395L204.773 181.099L206.789 182.951C207.343 183.43 207.784 184.047 207.973 184.766C208.402 186.214 207.734 187.814 206.486 188.659C205.97 189.087 204.886 189.944 204.357 190.372C204.118 190.599 203.677 190.901 203.463 191.141C202.858 191.771 202.619 192.716 202.845 193.56L203.186 194.87H203.198L203.211 194.845Z" fill="white"/>
</g>
<defs>
<filter id="filter0_i_1779_6580" x="-57.8447" y="-43.1138" width="389.699" height="346.134" filterUnits="userSpaceOnUse" color-interpolation-filters="sRGB">
<feFlood flood-opacity="0" result="BackgroundImageFix"/>
<feBlend mode="normal" in="SourceGraphic" in2="BackgroundImageFix" result="shape"/>
<feColorMatrix in="SourceAlpha" type="matrix" values="0 0 0 0 0 0 0 0 0 0 0 0 0 0 0 0 0 0 127 0" result="hardAlpha"/>
<feOffset dy="7.3458"/>
<feGaussianBlur stdDeviation="3.6729"/>
<feComposite in2="hardAlpha" operator="arithmetic" k2="-1" k3="1"/>
<feColorMatrix type="matrix" values="0 0 0 0 0 0 0 0 0 0 0 0 0 0 0 0 0 0 0.25 0"/>
<feBlend mode="normal" in2="shape" result="effect1_innerShadow_1779_6580"/>
</filter>
<linearGradient id="paint0_linear_1779_6580" x1="-10.3309" y1="34.1433" x2="229.731" y2="254.06" gradientUnits="userSpaceOnUse">
<stop offset="0.125" stop-color="#89D0FF"/>
<stop offset="0.4" stop-color="#EBBF9A"/>
<stop offset="0.635" stop-color="#EB8280"/>
<stop offset="0.88" stop-color="#A281FF"/>
</linearGradient>
</defs>
</svg>
