<svg width="169" height="40" viewBox="0 0 169 40" fill="none" xmlns="http://www.w3.org/2000/svg">
<g clip-path="url(#clip0_39_150)">
<mask id="mask0_39_150" style="mask-type:luminance" maskUnits="userSpaceOnUse" x="0" y="0" width="169" height="40">
<path d="M169 0H0V39.1143H169V0Z" fill="white"/>
</mask>
<g mask="url(#mask0_39_150)">
<path d="M93.5024 33.803C90.6854 33.803 88.2249 33.1947 86.1203 31.9782C84.0279 30.7766 82.3146 29.0259 81.1712 26.9213C79.9782 24.7659 79.382 22.2733 79.382 19.4436C79.382 16.6139 79.9782 14.1217 81.1712 11.9669C82.3141 9.86259 84.0258 8.1118 86.1171 6.90898C88.2222 5.69316 90.6833 5.08491 93.4993 5.08423C96.2883 5.08423 98.7425 5.69248 100.862 6.90898C102.96 8.1044 104.674 9.85704 105.81 11.9669C106.99 14.1224 107.58 16.6146 107.581 19.4436C107.581 22.2727 106.991 24.7652 105.81 26.9213C104.674 29.0311 102.96 30.7835 100.862 31.9782C98.7457 33.1947 96.2925 33.803 93.5024 33.803ZM93.5024 29.2411C96.1837 29.2411 98.3232 28.3685 99.9202 26.6233C101.517 24.8781 102.315 22.4849 102.314 19.4436C102.314 16.403 101.516 14.0098 99.9202 12.2639C98.3237 10.5181 96.1848 9.6455 93.5024 9.64619C90.8206 9.64619 88.6754 10.5188 87.0651 12.2639C85.4554 14.0091 84.6505 16.4023 84.6516 19.4436C84.6516 22.4849 85.4559 24.8781 87.0651 26.6233C88.6743 28.3685 90.8201 29.2411 93.5024 29.2411Z" fill="#E4E2D8"/>
<path d="M122.697 33.803C121.196 33.803 119.881 33.5254 118.754 32.9702C117.653 32.4362 116.71 31.63 116.019 30.6301L115.456 33.3274H110.869V4.76685H116.019V16.4687C116.715 15.5491 117.582 14.7685 118.573 14.1683C119.633 13.507 121.008 13.1763 122.697 13.1763C124.575 13.1763 126.252 13.626 127.727 14.5255C129.204 15.4277 130.412 16.7005 131.226 18.2139C132.084 19.7739 132.513 21.5457 132.514 23.529C132.515 25.5123 132.085 27.2775 131.226 28.8247C130.411 30.327 129.203 31.587 127.728 32.4743C126.251 33.3601 124.574 33.803 122.697 33.803ZM121.611 29.3605C123.247 29.3605 124.601 28.8182 125.675 27.7337C126.749 26.6492 127.285 25.2476 127.284 23.529C127.284 21.8103 126.747 20.3958 125.675 19.2854C124.603 18.1751 123.248 17.6195 121.611 17.6189C119.948 17.6189 118.586 18.1676 117.528 19.265C116.47 20.3625 115.94 21.7708 115.939 23.4902C115.939 25.2088 116.469 26.6169 117.528 27.7143C118.587 28.8118 119.948 29.3605 121.611 29.3605Z" fill="#E4E2D8"/>
<path d="M145.206 33.8032C143.274 33.8032 141.538 33.3667 139.997 32.4938C138.466 31.6329 137.201 30.3786 136.335 28.8647C135.439 27.3175 134.99 25.5261 134.99 23.4904C134.99 21.4547 135.446 19.6629 136.358 18.115C137.234 16.6029 138.506 15.3498 140.039 14.4859C141.581 13.613 143.318 13.1765 145.249 13.1765C147.154 13.1765 148.878 13.613 150.424 14.4859C151.955 15.3475 153.22 16.6016 154.085 18.115C154.983 19.6622 155.431 21.454 155.431 23.4904C155.431 25.5267 154.983 27.3182 154.085 28.8647C153.214 30.3833 151.938 31.6381 150.396 32.4938C148.841 33.3674 147.111 33.8039 145.206 33.8032ZM145.206 29.4005C146.548 29.4005 147.715 28.9045 148.707 27.9125C149.699 26.9205 150.196 25.4465 150.196 23.4904C150.196 21.5329 149.699 20.0585 148.707 19.0672C147.715 18.0759 146.562 17.5799 145.247 17.5792C143.879 17.5792 142.706 18.0752 141.728 19.0672C140.749 20.0592 140.26 21.5336 140.26 23.4904C140.26 25.4471 140.749 26.9212 141.728 27.9125C142.706 28.9038 143.865 29.3998 145.206 29.4005Z" fill="#E4E2D8"/>
<path d="M158.573 33.3274V4.76685H163.723V33.3274H158.573Z" fill="#E4E2D8"/>
<path d="M49.382 39.1146C44.454 39.1146 39.4234 37.2714 34.3732 33.6035C30.5827 30.8562 27.5116 28.3823 24.8007 26.1993L24.5492 25.9952L23.1084 27.3321C18.8158 31.3123 15.3297 33.7791 11.2142 33.7791C5.23962 33.7811 0 28.9661 0 23.4733C0 17.6562 5.63604 13.135 10.4854 13.135C15.5574 13.135 19.4452 15.4517 24.2811 19.1849C31.0589 12.9176 37.7952 6.84528 42.8972 3.50188C49.4462 -0.789604 59.5144 -1.851 66.0832 4.42039C73.5356 11.5348 70.7899 25.2308 65.7072 31.1674C63.8102 33.3831 59.7214 37.302 53.6496 38.6421C52.2491 38.9543 50.8179 39.1127 49.382 39.1146ZM28.3811 22.4466C30.974 24.5348 33.9074 26.8872 37.4619 29.4651C42.0236 32.7728 46.0397 33.9627 49.4545 33.9627C55.5762 33.9627 59.7647 30.1407 61.7236 27.8536C67.2155 21.4394 65.9538 11.4592 62.4561 8.11893C57.3264 3.2202 49.676 5.23583 45.7851 7.78519C41.1437 10.8265 34.8163 16.5029 28.3811 22.4466ZM10.4854 18.2787C8.1627 18.2787 5.21581 20.7281 5.21581 23.4744C5.21581 26.1279 8.13064 28.6415 11.2121 28.6415C13.2822 28.6415 15.6133 27.225 19.5321 23.5907L20.4357 22.7529C16.6773 19.9075 13.7915 18.2787 10.4854 18.2787Z" fill="#E4E2D8"/>
<path opacity="0.92" d="M19.532 23.5903C15.6131 27.2245 13.28 28.6411 11.2119 28.6411C10.703 28.6395 10.1964 28.5729 9.70483 28.4431V33.6786C10.2042 33.7466 10.7078 33.7807 11.2119 33.7807C15.3274 33.7807 18.8136 31.3139 23.1061 27.3337L24.5469 25.9968L20.4356 22.7494L19.532 23.5903Z" fill="#E4E2D8"/>
<g opacity="0.92">
<path opacity="0.92" d="M24.2814 19.1863L28.3813 22.4471C31.2982 19.7518 34.1934 17.1136 36.9198 14.7489L33.2266 11.1045C30.347 13.6069 27.3194 16.3757 24.2814 19.1863Z" fill="#E4E2D8"/>
</g>
</g>
</g>
<defs>
<clipPath id="clip0_39_150">
<rect width="169" height="40" fill="white"/>
</clipPath>
</defs>
</svg>
