<svg width="513" height="236" viewBox="0 0 513 236" fill="none" xmlns="http://www.w3.org/2000/svg">
<path d="M81.7538 112.176L50.2075 197.484H36.8781L5.33177 112.176H19.5498L43.0985 180.156H43.9871L67.5357 112.176H81.7538ZM92.7983 197.484V112.176H105.906V197.484H92.7983ZM99.463 97.9577C96.9082 97.9577 94.7052 97.0876 92.8539 95.3473C91.0396 93.6071 90.1324 91.5151 90.1324 89.0714C90.1324 86.6277 91.0396 84.5357 92.8539 82.7955C94.7052 81.0552 96.9082 80.1851 99.463 80.1851C102.018 80.1851 104.202 81.0552 106.017 82.7955C107.868 84.5357 108.794 86.6277 108.794 89.0714C108.794 91.5151 107.868 93.6071 106.017 95.3473C104.202 97.0876 102.018 97.9577 99.463 97.9577ZM184.083 131.281L172.309 134.614C171.568 132.651 170.476 130.744 169.032 128.893C167.625 127.005 165.7 125.45 163.256 124.228C160.812 123.006 157.684 122.395 153.87 122.395C148.649 122.395 144.299 123.598 140.818 126.005C137.375 128.375 135.653 131.392 135.653 135.058C135.653 138.316 136.838 140.89 139.207 142.778C141.577 144.666 145.28 146.24 150.315 147.499L162.978 150.609C170.606 152.46 176.289 155.293 180.029 159.106C183.768 162.883 185.638 167.752 185.638 173.713C185.638 178.601 184.231 182.97 181.417 186.82C178.64 190.671 174.753 193.707 169.754 195.929C164.756 198.15 158.942 199.261 152.315 199.261C143.614 199.261 136.412 197.373 130.71 193.596C125.008 189.82 121.398 184.303 119.88 177.046L132.321 173.935C133.505 178.527 135.746 181.97 139.041 184.266C142.373 186.561 146.724 187.709 152.093 187.709C158.202 187.709 163.052 186.413 166.644 183.821C170.272 181.192 172.087 178.045 172.087 174.38C172.087 171.418 171.05 168.937 168.977 166.937C166.903 164.901 163.719 163.383 159.424 162.383L145.206 159.051C137.393 157.2 131.654 154.33 127.989 150.442C124.36 146.517 122.546 141.612 122.546 135.724C122.546 130.911 123.897 126.653 126.6 122.95C129.34 119.248 133.061 116.341 137.763 114.231C142.503 112.12 147.872 111.065 153.87 111.065C162.312 111.065 168.939 112.916 173.753 116.619C178.603 120.321 182.047 125.209 184.083 131.281ZM236.213 112.176V123.284H192.004V112.176H236.213ZM204.889 91.7373H217.996V173.047C217.996 176.749 218.533 179.526 219.607 181.378C220.717 183.192 222.124 184.414 223.828 185.043C225.568 185.636 227.401 185.932 229.326 185.932C230.77 185.932 231.955 185.858 232.881 185.71C233.806 185.525 234.547 185.376 235.102 185.265L237.768 197.04C236.879 197.373 235.639 197.706 234.047 198.039C232.455 198.41 230.437 198.595 227.993 198.595C224.29 198.595 220.662 197.799 217.107 196.207C213.59 194.614 210.665 192.189 208.332 188.931C206.037 185.673 204.889 181.563 204.889 176.601V91.7373ZM274.777 199.483C269.371 199.483 264.465 198.465 260.059 196.429C255.653 194.355 252.154 191.375 249.562 187.487C246.97 183.562 245.675 178.823 245.675 173.269C245.675 168.381 246.637 164.42 248.563 161.383C250.488 158.31 253.061 155.904 256.283 154.163C259.504 152.423 263.058 151.127 266.946 150.276C270.871 149.387 274.814 148.684 278.776 148.165C283.96 147.499 288.162 146.999 291.383 146.666C294.642 146.295 297.011 145.684 298.492 144.833C300.01 143.981 300.769 142.5 300.769 140.39V139.945C300.769 134.465 299.27 130.207 296.271 127.171C293.309 124.135 288.81 122.617 282.775 122.617C276.517 122.617 271.611 123.987 268.057 126.727C264.502 129.467 262.003 132.392 260.559 135.502L248.118 131.059C250.34 125.875 253.302 121.84 257.005 118.952C260.744 116.026 264.817 113.99 269.223 112.842C273.666 111.657 278.035 111.065 282.33 111.065C285.07 111.065 288.218 111.398 291.772 112.065C295.364 112.694 298.826 114.009 302.158 116.008C305.527 118.007 308.323 121.025 310.544 125.061C312.766 129.097 313.877 134.502 313.877 141.278V197.484H300.769V185.932H300.103C299.214 187.783 297.733 189.764 295.66 191.875C293.586 193.985 290.828 195.781 287.385 197.262C283.941 198.743 279.739 199.483 274.777 199.483ZM276.777 187.709C281.96 187.709 286.329 186.691 289.884 184.654C293.475 182.618 296.178 179.989 297.993 176.768C299.844 173.547 300.769 170.159 300.769 166.604V154.608C300.214 155.274 298.992 155.885 297.104 156.44C295.253 156.959 293.105 157.422 290.661 157.829C288.255 158.199 285.903 158.532 283.608 158.829C281.349 159.088 279.516 159.31 278.109 159.495C274.703 159.939 271.519 160.661 268.557 161.661C265.632 162.624 263.262 164.086 261.448 166.049C259.67 167.974 258.782 170.603 258.782 173.935C258.782 178.49 260.467 181.933 263.836 184.266C267.242 186.561 271.556 187.709 276.777 187.709Z" fill="#E4E2D8"/>
<path d="M369.44 173.573V156.213H352.549V148.081H369.44V130.72H377.573V148.081H394.464V156.213H377.573V173.573H369.44ZM410.399 71.9144C406.229 71.9144 402.684 70.5069 399.764 67.6917C396.949 64.8765 395.542 61.3315 395.542 57.0566C395.542 52.886 396.949 49.3931 399.764 46.5779C402.684 43.6584 406.229 42.1987 410.399 42.1987C414.674 42.1987 418.219 43.6584 421.035 46.5779C423.954 49.3931 425.414 52.886 425.414 57.0566C425.414 61.3315 423.954 64.8765 421.035 67.6917C418.219 70.5069 414.674 71.9144 410.399 71.9144ZM410.399 63.4689C412.276 63.4689 413.788 62.8955 414.935 61.7485C416.186 60.4973 416.812 58.9334 416.812 57.0566C416.812 55.2841 416.186 53.8243 414.935 52.6774C413.788 51.4262 412.276 50.8006 410.399 50.8006C408.627 50.8006 407.115 51.4262 405.864 52.6774C404.717 53.8243 404.144 55.2841 404.144 57.0566C404.144 58.9334 404.717 60.4973 405.864 61.7485C407.115 62.8955 408.627 63.4689 410.399 63.4689ZM459.886 104.758V80.6728H470.99V104.758H459.886ZM428.919 124.152V113.047H453.005V124.152H428.919ZM478.341 124.152V113.047H502.427V124.152H478.341ZM459.886 156.213V132.128H470.99V156.213H459.886Z" fill="#FF5233"/>
</svg>
